<svg width="3988" height="3988" viewBox="0 0 3988 3988" fill="none" xmlns="http://www.w3.org/2000/svg">
<path d="M2028.58 1596.36C2028.58 1406.09 2066.1 1239.06 2137 1095.25C2210.11 951.442 2308.69 840.82 2432.76 763.384C2556.82 685.948 2698.19 633.942 2851.06 633.942C2981.77 633.942 3092.95 673.78 3190.43 726.878C3290.13 779.977 3371.13 848.975 3424.3 935.26V667.129H3987.99V2525.6H3424.3V2260.09C3368.91 2346.38 3286.81 2419.4 3187.11 2472.5C3089.63 2525.6 2973.46 2558.78 2842.75 2558.78C2692.1 2558.78 2556.82 2513.43 2432.76 2436C2308.69 2356.35 2210.11 2244.62 2137 2100.81C2066.1 1954.79 2028.58 1786.63 2028.58 1596.36ZM3419.73 1599.69C3419.73 1458.09 3379.85 1346.36 3300.1 1264.5C3222.56 1182.64 3127.29 1141.71 3014.31 1141.71C2901.32 1141.71 2804.95 1182.64 2725.19 1264.5C2647.65 1344.15 2608.88 1454.78 2608.88 1596.37C2608.88 1737.97 2647.65 1850.8 2725.19 1934.88C2804.95 2016.74 2901.32 2057.67 3014.31 2057.67C3127.29 2057.67 3222.56 2016.74 3300.1 1934.88C3379.85 1853.02 3419.73 1741.29 3419.73 1599.69Z" fill="white"/>
<path d="M864.863 1924.85C702.978 1924.85 555.838 1890.57 429.435 1835.26C303.032 1779.95 203.24 1704.73 130.059 1609.59C56.8782 1512.24 8.87039 1397.18 0 1277.71H565.487C572.14 1341.87 605.734 1400.51 658.956 1440.34C712.178 1480.16 777.597 1500.07 855.213 1500.07C926.176 1500.07 980.508 1486.8 1018.21 1460.25C1058.12 1431.49 1078.08 1394.98 1078.08 1350.73C1078.08 1297.64 1050.36 1258.92 994.922 1234.58C939.482 1208.03 849.669 1179.27 725.484 1148.29C592.428 1117.32 481.548 1085.24 392.844 1052.05C304.14 1016.65 227.633 962.449 163.323 889.438C99.0126 814.214 66.8574 713.548 66.8574 587.438C66.8574 481.24 95.6861 384.999 153.344 298.713C213.219 210.215 299.705 140.523 412.803 89.6364C528.118 38.75 665.834 0.019043 823.283 0.019043C1056.13 0.019043 1237.75 70.8305 1370.81 185.878C1506.08 300.926 1576.71 453.585 1596.67 643.856H1078.08C1069.21 579.695 1040.38 528.808 991.595 491.196C945.026 453.585 882.933 434.779 805.317 434.779C738.789 434.779 687.785 448.054 652.303 474.603C616.822 498.94 599.081 533.233 599.081 577.482C599.081 630.581 626.801 670.405 682.241 696.954C739.898 723.504 828.602 750.053 948.352 776.602C1085.84 812.002 1197.83 847.401 1284.32 882.8C1370.81 915.987 1446.2 971.298 1510.51 1048.73C1577.04 1123.96 1611.41 1225.73 1613.63 1354.05C1613.63 1462.46 1582.59 1559.81 1520.49 1646.1C1460.62 1730.17 1373.02 1796.54 1257.71 1845.22C1144.61 1893.89 1015.66 1924.85 864.863 1924.85Z" fill="white"/>
<path d="M856.173 2423.96C922.321 2321.95 1008.32 2238.79 1107.54 2181.13C1206.76 2121.26 1313.7 2091.32 1434.98 2091.32V2690.06L1282.83 2693.39C1141.72 2693.39 1035.88 2724.44 965.318 2786.53C894.759 2846.4 856.173 2952.85 856.173 3105.86V3538.28V3988H293.907L293.907 2074.69H856.173V2423.96Z" fill="white"/>
<path fill-rule="evenodd" clip-rule="evenodd" d="M2126.81 0C2130.36 7.81953 2134 15.5776 2137.73 23.2743C2210.81 167.22 2309.36 279.054 2433.37 358.778C2557.39 436.287 2692.61 481.672 2843.2 481.672C2973.86 481.672 3089.99 448.467 3187.43 395.318C3287.08 342.169 3369.16 269.076 3424.52 182.708V448.467H3987.98V0H2126.81Z" fill="white"/>
<path fill-rule="evenodd" clip-rule="evenodd" d="M2136.94 3170.37C2066.07 3314.31 2028.56 3481.5 2028.56 3671.95C2028.56 3784.93 2041.76 3890.12 2067.29 3987.51H2705.03C2640.77 3906.2 2608.63 3801.01 2608.63 3671.96C2608.63 3530.23 2647.39 3419.5 2724.9 3339.78C2804.62 3257.84 2900.95 3216.87 3013.9 3216.87C3126.84 3216.87 3222.06 3257.84 3299.57 3339.78C3379.3 3421.72 3419.16 3533.55 3419.16 3675.28C3419.16 3804.03 3386.26 3908.11 3320.48 3987.51H3987.19V2741.84H3423.72V3010.23C3370.58 2923.86 3289.61 2854.8 3189.95 2801.65C3092.51 2748.5 2981.37 2708.62 2850.71 2708.62C2697.91 2708.62 2556.59 2760.68 2432.58 2838.19C2308.56 2915.7 2210.02 3026.42 2136.94 3170.37Z" fill="white"/>
</svg>
