<svg width="88" height="74" viewBox="0 0 88 74" fill="none" xmlns="http://www.w3.org/2000/svg">
<g clip-path="url(#clip0_824_5105)">
<path fill-rule="evenodd" clip-rule="evenodd" d="M63.1949 62.2265C66.4709 62.2265 69.1326 64.8629 69.1326 68.1077C69.1326 71.3525 66.4709 73.9889 63.1949 73.9889C59.9162 73.9889 57.2571 71.3525 57.2571 68.1077C57.2571 64.8629 59.9162 62.2265 63.1949 62.2265ZM33.2699 62.2265C36.5459 62.2265 39.2076 64.8629 39.2076 68.1077C39.2076 71.3525 36.5459 73.9889 33.2699 73.9889C29.9912 73.9889 27.3321 71.3525 27.3321 68.1077C27.3321 64.8629 29.9912 62.2265 33.2699 62.2265ZM63.1949 64.8265C61.3652 64.8265 59.8821 66.2981 59.8821 68.1077C59.8821 69.9199 61.3652 71.3889 63.1949 71.3889C65.0219 71.3889 66.5076 69.9199 66.5076 68.1077C66.5076 66.2981 65.0219 64.8265 63.1949 64.8265ZM33.2699 64.8265C31.4402 64.8265 29.9571 66.2981 29.9571 68.1077C29.9571 69.9199 31.4402 71.3889 33.2699 71.3889C35.0969 71.3889 36.5826 69.9199 36.5826 68.1077C36.5826 66.2981 35.0969 64.8265 33.2699 64.8265ZM26.5341 51.5795V55.9735C26.5341 56.5351 26.9935 56.9875 27.5578 56.9875H71.2405C71.965 56.9875 72.553 57.5725 72.553 58.2875C72.553 59.0051 71.965 59.5875 71.2405 59.5875C71.2405 59.5875 36.9238 59.5875 27.5578 59.5875C25.5445 59.5875 23.9091 57.9703 23.9091 55.9735V50.6305C23.9038 50.6123 23.9013 50.5941 23.896 50.5785L14.3909 10.5645H2.25024C1.52574 10.5645 0.937744 9.9821 0.937744 9.2645C0.937744 8.5469 1.52574 7.9645 2.25024 7.9645H15.4304C16.0394 7.9645 16.5696 8.38051 16.7087 8.96551L19.4807 20.6395H75.7502C76.1361 20.6395 76.5036 20.8085 76.753 21.1023C77.0023 21.3935 77.1074 21.7809 77.0444 22.1579L72.154 50.4979C72.0463 51.1219 71.5004 51.5795 70.8598 51.5795H26.5341ZM20.0976 23.2395H74.1936L69.7547 48.9795H26.2139L20.0976 23.2395ZM37.2887 13.5935L31.3825 4.0801C31.0045 3.4691 31.1961 2.66831 31.813 2.29131C32.4299 1.91691 33.2384 2.10671 33.619 2.71771L39.5252 12.2311C39.9059 12.8421 39.7116 13.6429 39.0947 14.0199C38.4779 14.3943 37.6693 14.2045 37.2887 13.5935ZM56.9368 12.2311L62.8431 2.71771C63.2237 2.10671 64.0322 1.91691 64.6491 2.29131C65.266 2.66831 65.4602 3.4691 65.0796 4.0801L59.1734 13.5935C58.7927 14.2045 57.9842 14.3943 57.3674 14.0199C56.7505 13.6429 56.5588 12.8421 56.9368 12.2311ZM46.9199 10.8245V1.31111C46.9199 0.593508 47.5079 0.0111084 48.2324 0.0111084C48.9569 0.0111084 49.5449 0.593508 49.5449 1.31111V10.8245C49.5449 11.5421 48.9569 12.1245 48.2324 12.1245C47.5079 12.1245 46.9199 11.5421 46.9199 10.8245Z" fill="#ADAFAF"/>
</g>
<defs>
<clipPath id="clip0_824_5105">
<rect width="86.1245" height="73.9778" fill="white" transform="translate(0.937744 0.0111084)"/>
</clipPath>
</defs>
</svg>
