<svg width="1000" height="1000" viewBox="0 0 1000 1000" fill="none" xmlns="http://www.w3.org/2000/svg">
<path d="M508.672 400.29C508.672 352.579 518.081 310.697 535.858 274.636C554.19 238.575 578.911 210.836 610.021 191.419C641.131 172.002 676.58 158.961 714.911 158.961C747.688 158.961 775.568 168.95 800.011 182.265C825.01 195.58 845.322 212.881 858.654 234.518V167.283H1000V633.302H858.654V566.725C844.766 588.361 824.177 606.672 799.178 619.987C774.735 633.302 745.604 641.62 712.828 641.62C675.052 641.62 641.131 630.25 610.021 610.833C578.911 590.861 554.19 562.844 535.858 526.784C518.081 490.168 508.672 448.002 508.672 400.29ZM857.508 401.126C857.508 365.62 847.509 337.604 827.51 317.077C808.067 296.55 784.179 286.286 755.847 286.286C727.515 286.286 703.35 296.55 683.351 317.077C663.907 337.049 654.185 364.788 654.185 400.294C654.185 435.8 663.907 464.093 683.351 485.175C703.35 505.702 727.515 515.965 755.847 515.965C784.179 515.965 808.067 505.702 827.51 485.175C847.509 464.648 857.508 436.632 857.508 401.126Z" fill="#3A3A3A"/>
<path d="M216.868 482.659C176.274 482.659 139.378 474.063 107.682 460.194C75.9863 446.324 50.9631 427.462 32.6128 403.606C14.2624 379.196 2.22428 350.344 0 320.386H141.798C143.466 336.474 151.89 351.179 165.236 361.165C178.581 371.151 194.985 376.144 214.448 376.144C232.242 376.144 245.866 372.816 255.319 366.158C265.328 358.946 270.333 349.792 270.333 338.697C270.333 325.382 263.382 315.673 249.48 309.571C235.579 302.913 213.058 295.701 181.918 287.934C148.554 280.167 120.75 272.123 98.5072 263.801C76.2643 254.925 57.0799 241.333 40.9538 223.025C24.8278 204.162 16.7647 178.92 16.7647 147.297C16.7647 120.668 23.9937 96.5351 38.4515 74.8987C53.4654 52.7074 75.1522 35.2318 103.512 22.4719C132.427 9.71193 166.96 0 206.441 0C264.829 0 310.37 17.7562 343.735 46.6048C377.655 75.4534 395.366 113.733 400.371 161.444H270.333C268.109 145.356 260.88 132.596 248.646 123.165C236.969 113.733 221.399 109.018 201.936 109.018C185.254 109.018 172.465 112.346 163.567 119.004C154.67 125.106 150.222 133.705 150.222 144.801C150.222 158.116 157.173 168.102 171.074 174.759C185.532 181.416 207.775 188.074 237.803 194.731C272.279 203.608 300.361 212.484 322.048 221.361C343.735 229.682 362.641 243.552 378.767 262.969C395.449 281.832 404.068 307.352 404.624 339.529C404.624 366.713 396.839 391.123 381.269 412.76C366.255 433.842 344.291 450.485 315.375 462.69C287.015 474.895 254.68 482.659 216.868 482.659Z" fill="#3A3A3A"/>
<path d="M214.689 607.814C231.277 582.235 252.84 561.383 277.72 546.925C302.601 531.912 329.417 524.405 359.826 524.405V674.542L321.676 675.376C286.29 675.376 259.751 683.161 242.058 698.73C224.365 713.744 214.689 740.435 214.689 778.803V887.236V1000H73.6992L73.6992 520.234H214.689V607.814Z" fill="#3A3A3A"/>
<path fill-rule="evenodd" clip-rule="evenodd" d="M533.309 0C534.198 1.96087 535.11 3.90634 536.046 5.8364C554.371 41.9312 579.082 69.9742 610.179 89.9651C641.277 109.401 675.185 120.781 712.946 120.781C745.709 120.781 774.827 112.455 799.261 99.1277C824.25 85.8004 844.831 67.472 858.713 45.8151V112.455H1000V0H533.309Z" fill="#3A3A3A"/>
<path fill-rule="evenodd" clip-rule="evenodd" d="M535.843 794.98C518.073 831.074 508.668 872.997 508.668 920.753C508.668 949.083 511.978 975.46 518.38 999.883H678.295C662.18 979.493 654.123 953.117 654.123 920.756C654.123 885.217 663.841 857.452 683.277 837.461C703.268 816.914 727.423 806.641 755.744 806.641C784.065 806.641 807.943 816.914 827.378 837.461C847.369 858.007 857.365 886.05 857.365 921.589C857.365 953.873 849.117 979.971 832.621 999.883H999.801V687.525H858.51V754.823C845.183 733.166 824.879 715.849 799.891 702.521C775.457 689.194 747.588 679.195 714.825 679.195C676.509 679.195 641.074 692.248 609.976 711.684C578.879 731.12 554.168 758.885 535.843 794.98Z" fill="#3A3A3A"/>
</svg>
